<mxfile host="Electron" modified="2024-12-22T18:33:58.567Z" agent="Mozilla/5.0 (Windows NT 10.0; Win64; x64) AppleWebKit/537.36 (KHTML, like Gecko) draw.io/24.2.5 Chrome/120.0.6099.109 Electron/28.1.0 Safari/537.36" etag="rwBzhDszRVKqHJ7tl_lp" version="24.2.5" type="device" pages="3">
  <diagram id="PyJlmlWHrv2Sh9E0IOAN" name="all_combs">
    <mxGraphModel dx="954" dy="657" grid="1" gridSize="10" guides="1" tooltips="1" connect="1" arrows="1" fold="1" page="1" pageScale="1" pageWidth="827" pageHeight="1169" math="0" shadow="0">
      <root>
        <mxCell id="0" />
        <mxCell id="1" parent="0" />
        <mxCell id="fIOh6BD6G6801cXUUlGJ-1" value="Начало" style="strokeWidth=1;html=1;shape=mxgraph.flowchart.terminator;whiteSpace=wrap;fontFamily=Times New Roman;fontSize=13;" parent="1" vertex="1">
          <mxGeometry x="300" y="50" width="150" height="60" as="geometry" />
        </mxCell>
        <mxCell id="fIOh6BD6G6801cXUUlGJ-2" style="edgeStyle=orthogonalEdgeStyle;rounded=0;orthogonalLoop=1;jettySize=auto;html=1;exitX=0;exitY=0.5;exitDx=0;exitDy=0;exitPerimeter=0;endArrow=none;endFill=0;dashed=1;fontFamily=Times New Roman;entryX=1;entryY=0.5;entryDx=0;entryDy=0;entryPerimeter=0;fontSize=13;" parent="1" source="fIOh6BD6G6801cXUUlGJ-3" target="fIOh6BD6G6801cXUUlGJ-1" edge="1">
          <mxGeometry relative="1" as="geometry">
            <mxPoint x="445" y="60" as="sourcePoint" />
          </mxGeometry>
        </mxCell>
        <mxCell id="fIOh6BD6G6801cXUUlGJ-3" value="&lt;div style=&quot;font-size: 13px;&quot;&gt;all_combs&lt;/div&gt;&lt;div style=&quot;font-size: 13px;&quot;&gt;решение задачи коммивояжера&lt;/div&gt;&lt;div style=&quot;font-size: 13px;&quot;&gt;полным перебором&lt;/div&gt;&lt;div style=&quot;font-size: 13px;&quot;&gt;&lt;div style=&quot;font-size: 13px;&quot;&gt;&lt;span style=&quot;background-color: rgb(255, 255, 255); white-space-collapse: preserve; font-size: 13px;&quot;&gt;Вход: граф&lt;/span&gt;&lt;/div&gt;&lt;div style=&quot;font-size: 13px;&quot;&gt;&lt;div style=&quot;font-size: 13px;&quot;&gt;&lt;div style=&quot;font-size: 13px;&quot;&gt;&lt;span style=&quot;background-color: rgb(255, 255, 255); white-space-collapse: preserve; font-size: 13px;&quot;&gt;Выход: наименьшая длина &lt;/span&gt;&lt;/div&gt;&lt;div style=&quot;font-size: 13px;&quot;&gt;&lt;span style=&quot;background-color: rgb(255, 255, 255); white-space-collapse: preserve; font-size: 13px;&quot;&gt;возможного маршрута&lt;/span&gt;&lt;/div&gt;&lt;/div&gt;&lt;/div&gt;&lt;/div&gt;" style="strokeWidth=1;html=1;shape=mxgraph.flowchart.annotation_1;align=left;pointerEvents=1;fontFamily=Times New Roman;fontSize=13;" parent="1" vertex="1">
          <mxGeometry x="480" y="10" width="50" height="130" as="geometry" />
        </mxCell>
        <mxCell id="m3oYG4dRbVAKgPLqGxFK-11" style="edgeStyle=orthogonalEdgeStyle;rounded=0;orthogonalLoop=1;jettySize=auto;html=1;exitX=0.5;exitY=1;exitDx=0;exitDy=0;endArrow=none;endFill=0;" parent="1" source="m3oYG4dRbVAKgPLqGxFK-14" target="m3oYG4dRbVAKgPLqGxFK-1" edge="1">
          <mxGeometry relative="1" as="geometry">
            <mxPoint x="385" y="525" as="sourcePoint" />
          </mxGeometry>
        </mxCell>
        <mxCell id="fIOh6BD6G6801cXUUlGJ-4" value="goodPath = []" style="rounded=0;whiteSpace=wrap;html=1;fontFamily=Times New Roman;fontSize=13;" parent="1" vertex="1">
          <mxGeometry x="300" y="190" width="150" height="60" as="geometry" />
        </mxCell>
        <mxCell id="fIOh6BD6G6801cXUUlGJ-5" value="minDist = наибольшее значение переменной" style="rounded=0;whiteSpace=wrap;html=1;fontFamily=Times New Roman;fontSize=13;" parent="1" vertex="1">
          <mxGeometry x="300" y="120" width="150" height="60" as="geometry" />
        </mxCell>
        <mxCell id="fIOh6BD6G6801cXUUlGJ-6" value="" style="endArrow=none;html=1;rounded=0;exitX=0.5;exitY=0;exitDx=0;exitDy=0;entryX=0.5;entryY=1;entryDx=0;entryDy=0;fontFamily=Times New Roman;fontSize=13;" parent="1" source="fIOh6BD6G6801cXUUlGJ-4" target="fIOh6BD6G6801cXUUlGJ-5" edge="1">
          <mxGeometry width="50" height="50" relative="1" as="geometry">
            <mxPoint x="339" y="390" as="sourcePoint" />
            <mxPoint x="369" y="240" as="targetPoint" />
          </mxGeometry>
        </mxCell>
        <mxCell id="fIOh6BD6G6801cXUUlGJ-7" value="" style="endArrow=none;html=1;rounded=0;entryX=0.5;entryY=1;entryDx=0;entryDy=0;entryPerimeter=0;exitX=0.5;exitY=0;exitDx=0;exitDy=0;fontFamily=Times New Roman;fontSize=13;" parent="1" source="fIOh6BD6G6801cXUUlGJ-5" target="fIOh6BD6G6801cXUUlGJ-1" edge="1">
          <mxGeometry width="50" height="50" relative="1" as="geometry">
            <mxPoint x="319" y="90" as="sourcePoint" />
            <mxPoint x="369" y="40" as="targetPoint" />
          </mxGeometry>
        </mxCell>
        <mxCell id="m3oYG4dRbVAKgPLqGxFK-1" value="&lt;font style=&quot;font-size: 13px;&quot;&gt;Цикл i от 0 до длина paths&lt;br style=&quot;font-size: 13px;&quot;&gt;с шагом 1&lt;br style=&quot;font-size: 13px;&quot;&gt;&lt;/font&gt;" style="shape=loopLimit;whiteSpace=wrap;html=1;fontSize=13;fontFamily=Times New Roman;" parent="1" vertex="1">
          <mxGeometry x="300" y="400" width="150" height="60" as="geometry" />
        </mxCell>
        <mxCell id="m3oYG4dRbVAKgPLqGxFK-2" value="" style="endArrow=none;html=1;rounded=0;entryX=0.5;entryY=1;entryDx=0;entryDy=0;exitX=0.5;exitY=0;exitDx=0;exitDy=0;fontSize=13;fontFamily=Times New Roman;" parent="1" source="m3oYG4dRbVAKgPLqGxFK-3" edge="1">
          <mxGeometry width="50" height="50" relative="1" as="geometry">
            <mxPoint x="372" y="495" as="sourcePoint" />
            <mxPoint x="374" y="480" as="targetPoint" />
          </mxGeometry>
        </mxCell>
        <mxCell id="m3oYG4dRbVAKgPLqGxFK-26" style="edgeStyle=orthogonalEdgeStyle;rounded=0;orthogonalLoop=1;jettySize=auto;html=1;exitX=0.5;exitY=0;exitDx=0;exitDy=0;endArrow=none;endFill=0;" parent="1" source="m3oYG4dRbVAKgPLqGxFK-3" target="m3oYG4dRbVAKgPLqGxFK-1" edge="1">
          <mxGeometry relative="1" as="geometry" />
        </mxCell>
        <mxCell id="m3oYG4dRbVAKgPLqGxFK-3" value="dist = длина пути paths[i]" style="rounded=0;whiteSpace=wrap;html=1;fontFamily=Times New Roman;fontSize=13;" parent="1" vertex="1">
          <mxGeometry x="300" y="470" width="150" height="60" as="geometry" />
        </mxCell>
        <mxCell id="m3oYG4dRbVAKgPLqGxFK-8" value="" style="endArrow=none;html=1;rounded=0;entryX=0.5;entryY=0;entryDx=0;entryDy=0;fontSize=13;fontFamily=Times New Roman;" parent="1" target="m3oYG4dRbVAKgPLqGxFK-10" edge="1">
          <mxGeometry width="50" height="50" relative="1" as="geometry">
            <mxPoint x="375" y="760" as="sourcePoint" />
            <mxPoint x="579" y="1055" as="targetPoint" />
          </mxGeometry>
        </mxCell>
        <mxCell id="m3oYG4dRbVAKgPLqGxFK-10" value="Конец цикла по i" style="shape=loopLimit;whiteSpace=wrap;html=1;flipV=1;fontSize=13;fontFamily=Times New Roman;" parent="1" vertex="1">
          <mxGeometry x="300" y="770" width="150" height="60" as="geometry" />
        </mxCell>
        <mxCell id="m3oYG4dRbVAKgPLqGxFK-12" value="inds = список узлов графа" style="rounded=0;whiteSpace=wrap;html=1;fontFamily=Times New Roman;fontSize=13;" parent="1" vertex="1">
          <mxGeometry x="300" y="260" width="150" height="60" as="geometry" />
        </mxCell>
        <mxCell id="m3oYG4dRbVAKgPLqGxFK-13" value="" style="endArrow=none;html=1;rounded=0;exitX=0.5;exitY=0;exitDx=0;exitDy=0;entryX=0.5;entryY=1;entryDx=0;entryDy=0;fontFamily=Times New Roman;fontSize=13;" parent="1" source="m3oYG4dRbVAKgPLqGxFK-12" target="fIOh6BD6G6801cXUUlGJ-4" edge="1">
          <mxGeometry width="50" height="50" relative="1" as="geometry">
            <mxPoint x="339" y="475" as="sourcePoint" />
            <mxPoint x="375" y="260" as="targetPoint" />
          </mxGeometry>
        </mxCell>
        <mxCell id="m3oYG4dRbVAKgPLqGxFK-14" value="paths = все возможные перестоновки элементов inds со 2 по последний" style="rounded=0;whiteSpace=wrap;html=1;fontFamily=Times New Roman;fontSize=13;" parent="1" vertex="1">
          <mxGeometry x="300" y="330" width="150" height="60" as="geometry" />
        </mxCell>
        <mxCell id="m3oYG4dRbVAKgPLqGxFK-15" value="" style="endArrow=none;html=1;rounded=0;exitX=0.5;exitY=0;exitDx=0;exitDy=0;entryX=0.5;entryY=1;entryDx=0;entryDy=0;fontFamily=Times New Roman;fontSize=13;" parent="1" source="m3oYG4dRbVAKgPLqGxFK-14" target="m3oYG4dRbVAKgPLqGxFK-12" edge="1">
          <mxGeometry width="50" height="50" relative="1" as="geometry">
            <mxPoint x="339" y="585" as="sourcePoint" />
            <mxPoint x="375" y="355" as="targetPoint" />
          </mxGeometry>
        </mxCell>
        <mxCell id="m3oYG4dRbVAKgPLqGxFK-17" style="edgeStyle=orthogonalEdgeStyle;rounded=0;orthogonalLoop=1;jettySize=auto;html=1;exitX=0;exitY=0.5;exitDx=0;exitDy=0;endArrow=none;endFill=0;fontFamily=Times New Roman;fontSize=13;entryX=0.5;entryY=1;entryDx=0;entryDy=0;" parent="1" source="m3oYG4dRbVAKgPLqGxFK-18" target="m3oYG4dRbVAKgPLqGxFK-30" edge="1">
          <mxGeometry relative="1" as="geometry">
            <mxPoint x="235" y="780" as="targetPoint" />
            <Array as="points">
              <mxPoint x="230" y="570" />
              <mxPoint x="230" y="760" />
              <mxPoint x="515" y="760" />
            </Array>
          </mxGeometry>
        </mxCell>
        <mxCell id="m3oYG4dRbVAKgPLqGxFK-28" style="edgeStyle=orthogonalEdgeStyle;rounded=0;orthogonalLoop=1;jettySize=auto;html=1;exitX=1;exitY=0.5;exitDx=0;exitDy=0;entryX=0.5;entryY=0;entryDx=0;entryDy=0;endArrow=none;endFill=0;" parent="1" source="m3oYG4dRbVAKgPLqGxFK-18" target="m3oYG4dRbVAKgPLqGxFK-22" edge="1">
          <mxGeometry relative="1" as="geometry" />
        </mxCell>
        <mxCell id="m3oYG4dRbVAKgPLqGxFK-18" value="dist &amp;lt; minDist" style="rhombus;whiteSpace=wrap;html=1;fontFamily=Times New Roman;fontSize=13;" parent="1" vertex="1">
          <mxGeometry x="300" y="540" width="150" height="60" as="geometry" />
        </mxCell>
        <mxCell id="m3oYG4dRbVAKgPLqGxFK-19" value="да" style="text;html=1;align=center;verticalAlign=bottom;resizable=0;points=[];autosize=1;strokeColor=none;fillColor=none;fontFamily=Times New Roman;fontSize=13;" parent="1" vertex="1">
          <mxGeometry x="470" y="540" width="40" height="30" as="geometry" />
        </mxCell>
        <mxCell id="m3oYG4dRbVAKgPLqGxFK-20" value="" style="endArrow=none;html=1;rounded=0;entryX=0.5;entryY=1;entryDx=0;entryDy=0;fontFamily=Times New Roman;fontSize=13;" parent="1" source="m3oYG4dRbVAKgPLqGxFK-18" target="m3oYG4dRbVAKgPLqGxFK-3" edge="1">
          <mxGeometry width="50" height="50" relative="1" as="geometry">
            <mxPoint x="354" y="880" as="sourcePoint" />
            <mxPoint x="373" y="615" as="targetPoint" />
          </mxGeometry>
        </mxCell>
        <mxCell id="m3oYG4dRbVAKgPLqGxFK-22" value="minDist = dist" style="rounded=0;whiteSpace=wrap;html=1;fontFamily=Times New Roman;fontSize=13;" parent="1" vertex="1">
          <mxGeometry x="440" y="590" width="150" height="60" as="geometry" />
        </mxCell>
        <mxCell id="m3oYG4dRbVAKgPLqGxFK-29" style="edgeStyle=orthogonalEdgeStyle;rounded=0;orthogonalLoop=1;jettySize=auto;html=1;exitX=0.5;exitY=0;exitDx=0;exitDy=0;entryX=0.5;entryY=1;entryDx=0;entryDy=0;endArrow=none;endFill=0;fontSize=13;fontFamily=Times New Roman;" parent="1" source="m3oYG4dRbVAKgPLqGxFK-30" target="m3oYG4dRbVAKgPLqGxFK-22" edge="1">
          <mxGeometry relative="1" as="geometry">
            <mxPoint x="515" y="720" as="targetPoint" />
          </mxGeometry>
        </mxCell>
        <mxCell id="m3oYG4dRbVAKgPLqGxFK-30" value="goodPath = paths[i]" style="rounded=0;whiteSpace=wrap;html=1;fontFamily=Times New Roman;fontSize=13;" parent="1" vertex="1">
          <mxGeometry x="440" y="660" width="150" height="60" as="geometry" />
        </mxCell>
        <mxCell id="m3oYG4dRbVAKgPLqGxFK-31" style="edgeStyle=orthogonalEdgeStyle;rounded=0;orthogonalLoop=1;jettySize=auto;html=1;exitX=0.5;exitY=0;exitDx=0;exitDy=0;endArrow=none;endFill=0;fontFamily=Times New Roman;fontSize=13;entryX=0.5;entryY=1;entryDx=0;entryDy=0;" parent="1" source="m3oYG4dRbVAKgPLqGxFK-34" target="m3oYG4dRbVAKgPLqGxFK-10" edge="1">
          <mxGeometry relative="1" as="geometry">
            <mxPoint x="380.5" y="920" as="targetPoint" />
            <mxPoint x="380.5" y="930" as="sourcePoint" />
          </mxGeometry>
        </mxCell>
        <mxCell id="m3oYG4dRbVAKgPLqGxFK-32" value="Конец" style="strokeWidth=1;html=1;shape=mxgraph.flowchart.terminator;whiteSpace=wrap;fontFamily=Times New Roman;fontSize=13;" parent="1" vertex="1">
          <mxGeometry x="300" y="910" width="150" height="60" as="geometry" />
        </mxCell>
        <mxCell id="m3oYG4dRbVAKgPLqGxFK-33" value="" style="endArrow=none;html=1;rounded=0;entryX=0.5;entryY=0;entryDx=0;entryDy=0;entryPerimeter=0;exitX=0.5;exitY=1;exitDx=0;exitDy=0;fontFamily=Times New Roman;fontSize=13;" parent="1" source="m3oYG4dRbVAKgPLqGxFK-34" target="m3oYG4dRbVAKgPLqGxFK-32" edge="1">
          <mxGeometry width="50" height="50" relative="1" as="geometry">
            <mxPoint x="374" y="950" as="sourcePoint" />
            <mxPoint x="404" y="900" as="targetPoint" />
          </mxGeometry>
        </mxCell>
        <mxCell id="m3oYG4dRbVAKgPLqGxFK-34" value="minDist" style="shape=parallelogram;perimeter=parallelogramPerimeter;whiteSpace=wrap;html=1;fixedSize=1;fontFamily=Times New Roman;fontSize=13;" parent="1" vertex="1">
          <mxGeometry x="300" y="840" width="150" height="60" as="geometry" />
        </mxCell>
      </root>
    </mxGraphModel>
  </diagram>
  <diagram id="pDFGHqm4fmUpmdwMyWdD" name="ant_alg_1">
    <mxGraphModel dx="954" dy="657" grid="1" gridSize="10" guides="1" tooltips="1" connect="1" arrows="1" fold="1" page="1" pageScale="1" pageWidth="827" pageHeight="1169" math="0" shadow="0">
      <root>
        <mxCell id="0" />
        <mxCell id="1" parent="0" />
        <mxCell id="w07xpXAA6HgXOMDnfU6i-1" value="Начало" style="strokeWidth=1;html=1;shape=mxgraph.flowchart.terminator;whiteSpace=wrap;fontFamily=Times New Roman;fontSize=13;" parent="1" vertex="1">
          <mxGeometry x="304" y="50" width="150" height="60" as="geometry" />
        </mxCell>
        <mxCell id="w07xpXAA6HgXOMDnfU6i-2" style="edgeStyle=orthogonalEdgeStyle;rounded=0;orthogonalLoop=1;jettySize=auto;html=1;exitX=0;exitY=0.5;exitDx=0;exitDy=0;exitPerimeter=0;endArrow=none;endFill=0;dashed=1;fontFamily=Times New Roman;entryX=1;entryY=0.5;entryDx=0;entryDy=0;entryPerimeter=0;fontSize=13;" parent="1" source="w07xpXAA6HgXOMDnfU6i-3" target="w07xpXAA6HgXOMDnfU6i-1" edge="1">
          <mxGeometry relative="1" as="geometry">
            <mxPoint x="449" y="60" as="sourcePoint" />
          </mxGeometry>
        </mxCell>
        <mxCell id="w07xpXAA6HgXOMDnfU6i-3" value="&lt;div style=&quot;font-size: 13px;&quot;&gt;ant_alg&lt;/div&gt;&lt;div style=&quot;font-size: 13px;&quot;&gt;решение задачи коммивояжера&lt;/div&gt;&lt;div style=&quot;font-size: 13px;&quot;&gt;муравьиным алгоритмом&lt;/div&gt;&lt;div style=&quot;font-size: 13px;&quot;&gt;&lt;div style=&quot;font-size: 13px;&quot;&gt;&lt;span style=&quot;background-color: rgb(255, 255, 255); white-space-collapse: preserve; font-size: 13px;&quot;&gt;Вход: граф заданным матрицей смежности, &lt;/span&gt;&lt;/div&gt;&lt;div style=&quot;font-size: 13px;&quot;&gt;&lt;span style=&quot;background-color: rgb(255, 255, 255); white-space-collapse: preserve; font-size: 13px;&quot;&gt;greedy - коэффицент жадности алгоритма&lt;/span&gt;&lt;/div&gt;&lt;div style=&quot;font-size: 13px;&quot;&gt;&lt;span style=&quot;white-space-collapse: preserve; background-color: rgb(255, 255, 255);&quot;&gt;evap - коэффицент испарения феромона&lt;/span&gt;&lt;/div&gt;&lt;div style=&quot;font-size: 13px;&quot;&gt;&lt;span style=&quot;white-space-collapse: preserve; background-color: rgb(255, 255, 255);&quot;&gt;t_max - количество рассматриваемых дней&lt;/span&gt;&lt;/div&gt;&lt;div style=&quot;font-size: 13px;&quot;&gt;&lt;div style=&quot;font-size: 13px;&quot;&gt;&lt;div style=&quot;font-size: 13px;&quot;&gt;&lt;span style=&quot;background-color: rgb(255, 255, 255); white-space-collapse: preserve; font-size: 13px;&quot;&gt;Выход: наименьшая длина &lt;/span&gt;&lt;/div&gt;&lt;div style=&quot;font-size: 13px;&quot;&gt;&lt;span style=&quot;background-color: rgb(255, 255, 255); white-space-collapse: preserve; font-size: 13px;&quot;&gt;возможного маршрута&lt;/span&gt;&lt;/div&gt;&lt;/div&gt;&lt;/div&gt;&lt;/div&gt;" style="strokeWidth=1;html=1;shape=mxgraph.flowchart.annotation_1;align=left;pointerEvents=1;fontFamily=Times New Roman;fontSize=13;" parent="1" vertex="1">
          <mxGeometry x="484" y="10" width="50" height="130" as="geometry" />
        </mxCell>
        <mxCell id="w07xpXAA6HgXOMDnfU6i-4" style="edgeStyle=orthogonalEdgeStyle;rounded=0;orthogonalLoop=1;jettySize=auto;html=1;exitX=0.5;exitY=1;exitDx=0;exitDy=0;endArrow=none;endFill=0;" parent="1" source="w07xpXAA6HgXOMDnfU6i-17" target="w07xpXAA6HgXOMDnfU6i-9" edge="1">
          <mxGeometry relative="1" as="geometry">
            <mxPoint x="389" y="525" as="sourcePoint" />
          </mxGeometry>
        </mxCell>
        <mxCell id="w07xpXAA6HgXOMDnfU6i-5" value="goodPath = []" style="rounded=0;whiteSpace=wrap;html=1;fontFamily=Times New Roman;fontSize=13;" parent="1" vertex="1">
          <mxGeometry x="304" y="190" width="150" height="60" as="geometry" />
        </mxCell>
        <mxCell id="w07xpXAA6HgXOMDnfU6i-6" value="minDist = наибольшее значение переменной" style="rounded=0;whiteSpace=wrap;html=1;fontFamily=Times New Roman;fontSize=13;" parent="1" vertex="1">
          <mxGeometry x="304" y="120" width="150" height="60" as="geometry" />
        </mxCell>
        <mxCell id="w07xpXAA6HgXOMDnfU6i-7" value="" style="endArrow=none;html=1;rounded=0;exitX=0.5;exitY=0;exitDx=0;exitDy=0;entryX=0.5;entryY=1;entryDx=0;entryDy=0;fontFamily=Times New Roman;fontSize=13;" parent="1" source="w07xpXAA6HgXOMDnfU6i-5" target="w07xpXAA6HgXOMDnfU6i-6" edge="1">
          <mxGeometry width="50" height="50" relative="1" as="geometry">
            <mxPoint x="343" y="390" as="sourcePoint" />
            <mxPoint x="373" y="240" as="targetPoint" />
          </mxGeometry>
        </mxCell>
        <mxCell id="w07xpXAA6HgXOMDnfU6i-8" value="" style="endArrow=none;html=1;rounded=0;entryX=0.5;entryY=1;entryDx=0;entryDy=0;entryPerimeter=0;exitX=0.5;exitY=0;exitDx=0;exitDy=0;fontFamily=Times New Roman;fontSize=13;" parent="1" source="w07xpXAA6HgXOMDnfU6i-6" target="w07xpXAA6HgXOMDnfU6i-1" edge="1">
          <mxGeometry width="50" height="50" relative="1" as="geometry">
            <mxPoint x="323" y="90" as="sourcePoint" />
            <mxPoint x="373" y="40" as="targetPoint" />
          </mxGeometry>
        </mxCell>
        <mxCell id="w07xpXAA6HgXOMDnfU6i-9" value="&lt;font style=&quot;font-size: 13px;&quot;&gt;Цикл t от 1 до t_max&lt;br style=&quot;font-size: 13px;&quot;&gt;с шагом 1&lt;br style=&quot;font-size: 13px;&quot;&gt;&lt;/font&gt;" style="shape=loopLimit;whiteSpace=wrap;html=1;fontSize=13;fontFamily=Times New Roman;" parent="1" vertex="1">
          <mxGeometry x="304" y="400" width="150" height="60" as="geometry" />
        </mxCell>
        <mxCell id="w07xpXAA6HgXOMDnfU6i-15" value="ph = матрица смежности описывающая начальную концентрацию феромона&amp;nbsp;" style="rounded=0;whiteSpace=wrap;html=1;fontFamily=Times New Roman;fontSize=13;" parent="1" vertex="1">
          <mxGeometry x="304" y="260" width="150" height="60" as="geometry" />
        </mxCell>
        <mxCell id="w07xpXAA6HgXOMDnfU6i-16" value="" style="endArrow=none;html=1;rounded=0;exitX=0.5;exitY=0;exitDx=0;exitDy=0;entryX=0.5;entryY=1;entryDx=0;entryDy=0;fontFamily=Times New Roman;fontSize=13;" parent="1" source="w07xpXAA6HgXOMDnfU6i-15" target="w07xpXAA6HgXOMDnfU6i-5" edge="1">
          <mxGeometry width="50" height="50" relative="1" as="geometry">
            <mxPoint x="343" y="475" as="sourcePoint" />
            <mxPoint x="379" y="260" as="targetPoint" />
          </mxGeometry>
        </mxCell>
        <mxCell id="w07xpXAA6HgXOMDnfU6i-17" value="paths = все возможные перестоновки элементов inds со 2 по последний" style="rounded=0;whiteSpace=wrap;html=1;fontFamily=Times New Roman;fontSize=13;" parent="1" vertex="1">
          <mxGeometry x="304" y="330" width="150" height="60" as="geometry" />
        </mxCell>
        <mxCell id="w07xpXAA6HgXOMDnfU6i-18" value="" style="endArrow=none;html=1;rounded=0;exitX=0.5;exitY=0;exitDx=0;exitDy=0;entryX=0.5;entryY=1;entryDx=0;entryDy=0;fontFamily=Times New Roman;fontSize=13;" parent="1" source="w07xpXAA6HgXOMDnfU6i-17" target="w07xpXAA6HgXOMDnfU6i-15" edge="1">
          <mxGeometry width="50" height="50" relative="1" as="geometry">
            <mxPoint x="343" y="585" as="sourcePoint" />
            <mxPoint x="379" y="355" as="targetPoint" />
          </mxGeometry>
        </mxCell>
        <mxCell id="w07xpXAA6HgXOMDnfU6i-35" style="edgeStyle=orthogonalEdgeStyle;rounded=0;orthogonalLoop=1;jettySize=auto;html=1;exitX=0.5;exitY=1;exitDx=0;exitDy=0;endArrow=none;endFill=0;entryX=0.5;entryY=0;entryDx=0;entryDy=0;" parent="1" source="w07xpXAA6HgXOMDnfU6i-9" target="w07xpXAA6HgXOMDnfU6i-39" edge="1">
          <mxGeometry relative="1" as="geometry">
            <mxPoint x="375" y="515" as="sourcePoint" />
            <mxPoint x="379" y="470" as="targetPoint" />
          </mxGeometry>
        </mxCell>
        <mxCell id="w07xpXAA6HgXOMDnfU6i-39" value="ants = массив путей пройденных N муравьями" style="rounded=0;whiteSpace=wrap;html=1;fontFamily=Times New Roman;fontSize=13;" parent="1" vertex="1">
          <mxGeometry x="303" y="470" width="152" height="60" as="geometry" />
        </mxCell>
        <mxCell id="w07xpXAA6HgXOMDnfU6i-44" style="edgeStyle=orthogonalEdgeStyle;rounded=0;orthogonalLoop=1;jettySize=auto;html=1;exitX=0.5;exitY=0;exitDx=0;exitDy=0;entryX=0.5;entryY=1;entryDx=0;entryDy=0;endArrow=none;endFill=0;" parent="1" source="w07xpXAA6HgXOMDnfU6i-41" target="w07xpXAA6HgXOMDnfU6i-39" edge="1">
          <mxGeometry relative="1" as="geometry" />
        </mxCell>
        <mxCell id="w07xpXAA6HgXOMDnfU6i-41" value="&lt;font style=&quot;font-size: 13px;&quot;&gt;Цикл k от 0 до размер ants&lt;br style=&quot;font-size: 13px;&quot;&gt;с шагом 1&lt;br style=&quot;font-size: 13px;&quot;&gt;&lt;/font&gt;" style="shape=loopLimit;whiteSpace=wrap;html=1;fontSize=13;fontFamily=Times New Roman;" parent="1" vertex="1">
          <mxGeometry x="303.5" y="540" width="150" height="60" as="geometry" />
        </mxCell>
        <mxCell id="w07xpXAA6HgXOMDnfU6i-42" style="edgeStyle=orthogonalEdgeStyle;rounded=0;orthogonalLoop=1;jettySize=auto;html=1;exitX=0.5;exitY=1;exitDx=0;exitDy=0;endArrow=none;endFill=0;entryX=0.5;entryY=0;entryDx=0;entryDy=0;" parent="1" source="w07xpXAA6HgXOMDnfU6i-41" target="w07xpXAA6HgXOMDnfU6i-45" edge="1">
          <mxGeometry relative="1" as="geometry">
            <mxPoint x="374.5" y="655" as="sourcePoint" />
            <mxPoint x="379.4999999999998" y="610" as="targetPoint" />
          </mxGeometry>
        </mxCell>
        <mxCell id="w07xpXAA6HgXOMDnfU6i-48" style="edgeStyle=orthogonalEdgeStyle;rounded=0;orthogonalLoop=1;jettySize=auto;html=1;exitX=0.5;exitY=1;exitDx=0;exitDy=0;entryX=0.5;entryY=0;entryDx=0;entryDy=0;endArrow=none;endFill=0;" parent="1" source="w07xpXAA6HgXOMDnfU6i-45" target="w07xpXAA6HgXOMDnfU6i-46" edge="1">
          <mxGeometry relative="1" as="geometry" />
        </mxCell>
        <mxCell id="w07xpXAA6HgXOMDnfU6i-45" value="&lt;font style=&quot;font-size: 13px;&quot;&gt;Цикл по непосещенным узлам&lt;br style=&quot;font-size: 13px;&quot;&gt;&lt;/font&gt;" style="shape=loopLimit;whiteSpace=wrap;html=1;fontSize=13;fontFamily=Times New Roman;" parent="1" vertex="1">
          <mxGeometry x="304" y="610" width="150" height="60" as="geometry" />
        </mxCell>
        <mxCell id="w07xpXAA6HgXOMDnfU6i-46" value="Найти вероятность перехода в непосещенные узлы" style="rounded=0;whiteSpace=wrap;html=1;fontFamily=Times New Roman;fontSize=13;" parent="1" vertex="1">
          <mxGeometry x="303.5" y="680" width="150" height="60" as="geometry" />
        </mxCell>
        <mxCell id="w07xpXAA6HgXOMDnfU6i-49" style="edgeStyle=orthogonalEdgeStyle;rounded=0;orthogonalLoop=1;jettySize=auto;html=1;exitX=0.5;exitY=1;exitDx=0;exitDy=0;entryX=0.5;entryY=0;entryDx=0;entryDy=0;endArrow=none;endFill=0;" parent="1" source="w07xpXAA6HgXOMDnfU6i-46" target="w07xpXAA6HgXOMDnfU6i-50" edge="1">
          <mxGeometry relative="1" as="geometry">
            <mxPoint x="378.5" y="780" as="sourcePoint" />
          </mxGeometry>
        </mxCell>
        <mxCell id="w07xpXAA6HgXOMDnfU6i-56" style="edgeStyle=orthogonalEdgeStyle;rounded=0;orthogonalLoop=1;jettySize=auto;html=1;exitX=0.5;exitY=1;exitDx=0;exitDy=0;endArrow=none;endFill=0;" parent="1" source="w07xpXAA6HgXOMDnfU6i-50" target="w07xpXAA6HgXOMDnfU6i-55" edge="1">
          <mxGeometry relative="1" as="geometry" />
        </mxCell>
        <mxCell id="w07xpXAA6HgXOMDnfU6i-50" value="Выбрать узел, в который будет осуществлен переход" style="rounded=0;whiteSpace=wrap;html=1;fontFamily=Times New Roman;fontSize=13;" parent="1" vertex="1">
          <mxGeometry x="303" y="750" width="150" height="60" as="geometry" />
        </mxCell>
        <mxCell id="w07xpXAA6HgXOMDnfU6i-52" style="edgeStyle=orthogonalEdgeStyle;rounded=0;orthogonalLoop=1;jettySize=auto;html=1;exitX=0;exitY=0.5;exitDx=0;exitDy=0;exitPerimeter=0;entryX=1;entryY=0.5;entryDx=0;entryDy=0;endArrow=none;endFill=0;" parent="1" source="w07xpXAA6HgXOMDnfU6i-51" target="w07xpXAA6HgXOMDnfU6i-46" edge="1">
          <mxGeometry relative="1" as="geometry" />
        </mxCell>
        <mxCell id="w07xpXAA6HgXOMDnfU6i-51" value="&lt;div style=&quot;font-size: 13px;&quot;&gt;формула (1.2)&lt;/div&gt;" style="strokeWidth=1;html=1;shape=mxgraph.flowchart.annotation_1;align=left;pointerEvents=1;fontFamily=Times New Roman;fontSize=13;" parent="1" vertex="1">
          <mxGeometry x="470" y="680" width="50" height="60" as="geometry" />
        </mxCell>
        <mxCell id="w07xpXAA6HgXOMDnfU6i-55" value="Добавить выбранный город в ants[k]" style="rounded=0;whiteSpace=wrap;html=1;fontFamily=Times New Roman;fontSize=13;" parent="1" vertex="1">
          <mxGeometry x="303" y="820" width="150" height="60" as="geometry" />
        </mxCell>
        <mxCell id="w07xpXAA6HgXOMDnfU6i-58" style="edgeStyle=orthogonalEdgeStyle;rounded=0;orthogonalLoop=1;jettySize=auto;html=1;exitX=0.5;exitY=0;exitDx=0;exitDy=0;entryX=0.5;entryY=1;entryDx=0;entryDy=0;endArrow=none;endFill=0;" parent="1" source="w07xpXAA6HgXOMDnfU6i-57" target="w07xpXAA6HgXOMDnfU6i-55" edge="1">
          <mxGeometry relative="1" as="geometry" />
        </mxCell>
        <mxCell id="w07xpXAA6HgXOMDnfU6i-57" value="Конец цикла по непосещенным узлам" style="shape=loopLimit;whiteSpace=wrap;html=1;flipV=1;fontSize=13;fontFamily=Times New Roman;" parent="1" vertex="1">
          <mxGeometry x="303" y="890" width="150" height="60" as="geometry" />
        </mxCell>
        <mxCell id="w07xpXAA6HgXOMDnfU6i-59" style="edgeStyle=orthogonalEdgeStyle;rounded=0;orthogonalLoop=1;jettySize=auto;html=1;exitX=0.5;exitY=1;exitDx=0;exitDy=0;endArrow=none;endFill=0;entryX=0.5;entryY=0;entryDx=0;entryDy=0;" parent="1" source="w07xpXAA6HgXOMDnfU6i-57" target="w07xpXAA6HgXOMDnfU6i-60" edge="1">
          <mxGeometry relative="1" as="geometry">
            <mxPoint x="366" y="1000" as="sourcePoint" />
            <mxPoint x="366" y="1010" as="targetPoint" />
          </mxGeometry>
        </mxCell>
        <mxCell id="w07xpXAA6HgXOMDnfU6i-60" value="dist = длина пути ants[k]" style="rounded=0;whiteSpace=wrap;html=1;fontFamily=Times New Roman;fontSize=13;" parent="1" vertex="1">
          <mxGeometry x="304" y="960" width="152" height="60" as="geometry" />
        </mxCell>
        <mxCell id="EwzqctkmX-psOZ_7OMFv-3" style="edgeStyle=orthogonalEdgeStyle;rounded=0;orthogonalLoop=1;jettySize=auto;html=1;exitX=0.5;exitY=0;exitDx=0;exitDy=0;exitPerimeter=0;entryX=0.5;entryY=1;entryDx=0;entryDy=0;endArrow=none;endFill=0;" edge="1" parent="1" source="EwzqctkmX-psOZ_7OMFv-1" target="w07xpXAA6HgXOMDnfU6i-60">
          <mxGeometry relative="1" as="geometry" />
        </mxCell>
        <mxCell id="EwzqctkmX-psOZ_7OMFv-1" value="&lt;font style=&quot;font-size: 13px;&quot;&gt;A&lt;/font&gt;" style="strokeWidth=1;html=1;shape=mxgraph.flowchart.start_2;whiteSpace=wrap;rounded=0;strokeColor=default;fontSize=13;fontFamily=Times New Roman;" vertex="1" parent="1">
          <mxGeometry x="345" y="1030" width="70" height="70" as="geometry" />
        </mxCell>
      </root>
    </mxGraphModel>
  </diagram>
  <diagram id="N0CRzJ59EtofwkEpO3RE" name="ant_alg_2">
    <mxGraphModel dx="954" dy="-512" grid="1" gridSize="10" guides="1" tooltips="1" connect="1" arrows="1" fold="1" page="1" pageScale="1" pageWidth="827" pageHeight="1169" math="0" shadow="0">
      <root>
        <mxCell id="0" />
        <mxCell id="1" parent="0" />
        <mxCell id="vezvWHqDM9GhyuMg8GJR-1" value="Конец цикла по i" style="shape=loopLimit;whiteSpace=wrap;html=1;flipV=1;fontSize=13;fontFamily=Times New Roman;" vertex="1" parent="1">
          <mxGeometry x="302.5" y="1660" width="150" height="60" as="geometry" />
        </mxCell>
        <mxCell id="vezvWHqDM9GhyuMg8GJR-2" style="edgeStyle=orthogonalEdgeStyle;rounded=0;orthogonalLoop=1;jettySize=auto;html=1;exitX=0.5;exitY=0;exitDx=0;exitDy=0;endArrow=none;endFill=0;fontFamily=Times New Roman;fontSize=13;entryX=0.5;entryY=1;entryDx=0;entryDy=0;" edge="1" parent="1" source="vezvWHqDM9GhyuMg8GJR-5" target="vezvWHqDM9GhyuMg8GJR-1">
          <mxGeometry relative="1" as="geometry">
            <mxPoint x="383" y="1810" as="targetPoint" />
            <mxPoint x="383" y="1820" as="sourcePoint" />
          </mxGeometry>
        </mxCell>
        <mxCell id="vezvWHqDM9GhyuMg8GJR-3" value="Конец" style="strokeWidth=1;html=1;shape=mxgraph.flowchart.terminator;whiteSpace=wrap;fontFamily=Times New Roman;fontSize=13;" vertex="1" parent="1">
          <mxGeometry x="302.5" y="1800" width="150" height="60" as="geometry" />
        </mxCell>
        <mxCell id="vezvWHqDM9GhyuMg8GJR-4" value="" style="endArrow=none;html=1;rounded=0;entryX=0.5;entryY=0;entryDx=0;entryDy=0;entryPerimeter=0;exitX=0.5;exitY=1;exitDx=0;exitDy=0;fontFamily=Times New Roman;fontSize=13;" edge="1" parent="1" source="vezvWHqDM9GhyuMg8GJR-5" target="vezvWHqDM9GhyuMg8GJR-3">
          <mxGeometry width="50" height="50" relative="1" as="geometry">
            <mxPoint x="376.5" y="1840" as="sourcePoint" />
            <mxPoint x="406.5" y="1790" as="targetPoint" />
          </mxGeometry>
        </mxCell>
        <mxCell id="vezvWHqDM9GhyuMg8GJR-5" value="minDist" style="shape=parallelogram;perimeter=parallelogramPerimeter;whiteSpace=wrap;html=1;fixedSize=1;fontFamily=Times New Roman;fontSize=13;" vertex="1" parent="1">
          <mxGeometry x="302.5" y="1730" width="150" height="60" as="geometry" />
        </mxCell>
        <mxCell id="vezvWHqDM9GhyuMg8GJR-6" value="Конец цикла по k" style="shape=loopLimit;whiteSpace=wrap;html=1;flipV=1;fontSize=13;fontFamily=Times New Roman;" vertex="1" parent="1">
          <mxGeometry x="303.5" y="1520" width="150" height="60" as="geometry" />
        </mxCell>
        <mxCell id="vezvWHqDM9GhyuMg8GJR-7" value="" style="endArrow=none;html=1;rounded=0;fontSize=13;fontFamily=Times New Roman;entryX=0.5;entryY=0;entryDx=0;entryDy=0;" edge="1" parent="1" target="vezvWHqDM9GhyuMg8GJR-6">
          <mxGeometry width="50" height="50" relative="1" as="geometry">
            <mxPoint x="379" y="1510" as="sourcePoint" />
            <mxPoint x="379" y="1520" as="targetPoint" />
          </mxGeometry>
        </mxCell>
        <mxCell id="vezvWHqDM9GhyuMg8GJR-8" style="edgeStyle=orthogonalEdgeStyle;rounded=0;orthogonalLoop=1;jettySize=auto;html=1;exitX=0;exitY=0.5;exitDx=0;exitDy=0;endArrow=none;endFill=0;fontFamily=Times New Roman;fontSize=13;entryX=0.5;entryY=1;entryDx=0;entryDy=0;" edge="1" parent="1" source="vezvWHqDM9GhyuMg8GJR-10" target="vezvWHqDM9GhyuMg8GJR-15">
          <mxGeometry relative="1" as="geometry">
            <mxPoint x="239" y="1530" as="targetPoint" />
            <Array as="points">
              <mxPoint x="234" y="1320" />
              <mxPoint x="234" y="1510" />
              <mxPoint x="519" y="1510" />
            </Array>
          </mxGeometry>
        </mxCell>
        <mxCell id="vezvWHqDM9GhyuMg8GJR-9" style="edgeStyle=orthogonalEdgeStyle;rounded=0;orthogonalLoop=1;jettySize=auto;html=1;exitX=1;exitY=0.5;exitDx=0;exitDy=0;entryX=0.5;entryY=0;entryDx=0;entryDy=0;endArrow=none;endFill=0;" edge="1" parent="1" source="vezvWHqDM9GhyuMg8GJR-10" target="vezvWHqDM9GhyuMg8GJR-13">
          <mxGeometry relative="1" as="geometry" />
        </mxCell>
        <mxCell id="vezvWHqDM9GhyuMg8GJR-10" value="dist &amp;lt; minDist" style="rhombus;whiteSpace=wrap;html=1;fontFamily=Times New Roman;fontSize=13;" vertex="1" parent="1">
          <mxGeometry x="304" y="1290" width="150" height="60" as="geometry" />
        </mxCell>
        <mxCell id="vezvWHqDM9GhyuMg8GJR-11" value="да" style="text;html=1;align=center;verticalAlign=bottom;resizable=0;points=[];autosize=1;strokeColor=none;fillColor=none;fontFamily=Times New Roman;fontSize=13;" vertex="1" parent="1">
          <mxGeometry x="474" y="1290" width="40" height="30" as="geometry" />
        </mxCell>
        <mxCell id="vezvWHqDM9GhyuMg8GJR-12" value="" style="endArrow=none;html=1;rounded=0;entryX=0.5;entryY=1;entryDx=0;entryDy=0;fontFamily=Times New Roman;fontSize=13;entryPerimeter=0;" edge="1" parent="1" source="vezvWHqDM9GhyuMg8GJR-10" target="vezvWHqDM9GhyuMg8GJR-21">
          <mxGeometry width="50" height="50" relative="1" as="geometry">
            <mxPoint x="358" y="1400" as="sourcePoint" />
            <mxPoint x="379" y="1050" as="targetPoint" />
          </mxGeometry>
        </mxCell>
        <mxCell id="vezvWHqDM9GhyuMg8GJR-13" value="minDist = dist" style="rounded=0;whiteSpace=wrap;html=1;fontFamily=Times New Roman;fontSize=13;" vertex="1" parent="1">
          <mxGeometry x="444" y="1340" width="150" height="60" as="geometry" />
        </mxCell>
        <mxCell id="vezvWHqDM9GhyuMg8GJR-14" style="edgeStyle=orthogonalEdgeStyle;rounded=0;orthogonalLoop=1;jettySize=auto;html=1;exitX=0.5;exitY=0;exitDx=0;exitDy=0;entryX=0.5;entryY=1;entryDx=0;entryDy=0;endArrow=none;endFill=0;fontSize=13;fontFamily=Times New Roman;" edge="1" parent="1" source="vezvWHqDM9GhyuMg8GJR-15" target="vezvWHqDM9GhyuMg8GJR-13">
          <mxGeometry relative="1" as="geometry">
            <mxPoint x="519" y="1470" as="targetPoint" />
          </mxGeometry>
        </mxCell>
        <mxCell id="vezvWHqDM9GhyuMg8GJR-15" value="goodPath = paths[i]" style="rounded=0;whiteSpace=wrap;html=1;fontFamily=Times New Roman;fontSize=13;" vertex="1" parent="1">
          <mxGeometry x="444" y="1410" width="150" height="60" as="geometry" />
        </mxCell>
        <mxCell id="vezvWHqDM9GhyuMg8GJR-16" style="edgeStyle=orthogonalEdgeStyle;rounded=0;orthogonalLoop=1;jettySize=auto;html=1;exitX=0.5;exitY=1;exitDx=0;exitDy=0;endArrow=none;endFill=0;entryX=0.5;entryY=0;entryDx=0;entryDy=0;" edge="1" parent="1" source="vezvWHqDM9GhyuMg8GJR-6" target="vezvWHqDM9GhyuMg8GJR-18">
          <mxGeometry relative="1" as="geometry">
            <mxPoint x="375" y="1620" as="sourcePoint" />
            <mxPoint x="363" y="1680" as="targetPoint" />
          </mxGeometry>
        </mxCell>
        <mxCell id="vezvWHqDM9GhyuMg8GJR-17" style="edgeStyle=orthogonalEdgeStyle;rounded=0;orthogonalLoop=1;jettySize=auto;html=1;exitX=1;exitY=0.5;exitDx=0;exitDy=0;endArrow=none;endFill=0;" edge="1" parent="1" source="vezvWHqDM9GhyuMg8GJR-18" target="vezvWHqDM9GhyuMg8GJR-20">
          <mxGeometry relative="1" as="geometry" />
        </mxCell>
        <mxCell id="vezvWHqDM9GhyuMg8GJR-18" value="Обновить матрицу феромонов ph" style="rounded=0;whiteSpace=wrap;html=1;fontFamily=Times New Roman;fontSize=13;" vertex="1" parent="1">
          <mxGeometry x="301.5" y="1590" width="152" height="60" as="geometry" />
        </mxCell>
        <mxCell id="vezvWHqDM9GhyuMg8GJR-19" value="" style="endArrow=none;html=1;rounded=0;entryX=0.5;entryY=1;entryDx=0;entryDy=0;fontFamily=Times New Roman;fontSize=13;exitX=0.5;exitY=0;exitDx=0;exitDy=0;" edge="1" parent="1" source="vezvWHqDM9GhyuMg8GJR-1" target="vezvWHqDM9GhyuMg8GJR-18">
          <mxGeometry width="50" height="50" relative="1" as="geometry">
            <mxPoint x="377" y="1700" as="sourcePoint" />
            <mxPoint x="376" y="1720" as="targetPoint" />
          </mxGeometry>
        </mxCell>
        <mxCell id="vezvWHqDM9GhyuMg8GJR-20" value="&lt;div style=&quot;font-size: 13px;&quot;&gt;формула (1.3)&lt;/div&gt;" style="strokeWidth=1;html=1;shape=mxgraph.flowchart.annotation_1;align=left;pointerEvents=1;fontFamily=Times New Roman;fontSize=13;" vertex="1" parent="1">
          <mxGeometry x="474" y="1590" width="50" height="60" as="geometry" />
        </mxCell>
        <mxCell id="vezvWHqDM9GhyuMg8GJR-21" value="&lt;font style=&quot;font-size: 13px;&quot;&gt;A&lt;/font&gt;" style="strokeWidth=1;html=1;shape=mxgraph.flowchart.start_2;whiteSpace=wrap;rounded=0;strokeColor=default;fontSize=13;fontFamily=Times New Roman;" vertex="1" parent="1">
          <mxGeometry x="342.5" y="1200" width="70" height="70" as="geometry" />
        </mxCell>
      </root>
    </mxGraphModel>
  </diagram>
</mxfile>
